<svg xmlns="http://www.w3.org/2000/svg" xmlns:xlink="http://www.w3.org/1999/xlink" version="1.1" x="0px" y="0px" viewBox="-7.983 0 100 125" enable-background="new -7.983 0 100 100" xml:space="preserve"><path d="M46.815,48.455c2.997,3.033,5.142,6.911,6.037,11.248c2.717,0.228,4.851,2.5,4.851,5.274c0,2.925-2.371,5.298-5.295,5.298  c-2.928,0-5.298-2.373-5.298-5.298c0-2.471,1.692-4.538,3.979-5.124c-1.176-5.493-4.48-10.28-8.999-13.33  c3.517-4.208,5.916-10.341,6.438-17.299c0.136-0.937,0.206-1.896,0.206-2.873s-0.07-1.936-0.206-2.873  C47.213,14.415,39.774,7.47,30.795,7.47c-8.982,0-16.422,6.948-17.733,16.017c-0.135,0.934-0.206,1.891-0.206,2.865  c0,0.396,0.014,0.788,0.038,1.178c0.033,0.569,0.087,1.133,0.167,1.688c0.012,0.169,0.026,0.339,0.042,0.506  c0.596,6.739,2.956,12.669,6.379,16.775c-0.787,0.262-1.563,0.55-2.324,0.865c-4.419,3.565-6.905,9.141-7.112,15.995  c4.488,0.392,8.048,5.939,8.048,12.75l-1.659,1.409c0.14,0.217,0.223,0.474,0.223,0.751c0,0.767-0.619,1.384-1.383,1.384  c-0.762,0-1.381-0.617-1.381-1.384c0-0.763,0.619-1.381,1.381-1.381c0.267,0,0.514,0.079,0.726,0.211l1.426-0.99  c0-6.511-3.532-11.791-7.888-11.791c-4.354,0-7.885,5.28-7.885,11.791l1.306,0.904c0.173-0.079,0.367-0.125,0.571-0.125  c0.763,0,1.382,0.616,1.382,1.38s-0.62,1.383-1.382,1.383c-0.764,0-1.383-0.619-1.383-1.383c0-0.341,0.129-0.649,0.335-0.892  l-1.496-1.271c0-6.426,3.173-11.729,7.302-12.637c0.208-5.851,1.933-11.13,5.779-15.019C3.383,53.818-3.529,64.385-4.759,76.833  c7.072,10.932,20.345,15.328,35.554,15.328c15.206,0,28.481-4.396,35.553-15.328C65.118,64.387,57.498,53.823,46.815,48.455z   M19.73,19.037c0,0,12.396,6.029,20.733,0c0,0,4.946,7.828,3.558,10.904l2.519-2.892c-0.011,0.769-0.069,1.524-0.179,2.264  C45.504,40.761,38.862,49.67,30.795,49.67c-7.936,0-14.492-8.623-15.521-19.804c0.698,0.176,1.554,0.515,2.487,1.167  C17.761,31.033,15.99,20.513,19.73,19.037z M30.456,61.498L20.45,47.578c2.918,3.04,6.488,4.835,10.345,4.835  c3.599,0,6.947-1.563,9.75-4.241L30.456,61.498z M45.311,77.616h-3.545v3.546h-3.021v-3.546h-3.545v-3.02h3.545v-3.546h3.021v3.546  h3.545V77.616z"/><path d="M52.407,68.458c1.923,0,3.479-1.558,3.479-3.48c0-1.666-1.171-3.052-2.733-3.395c-0.242-0.051-0.49-0.085-0.746-0.085  c-0.357,0-0.691,0.07-1.016,0.168c-1.424,0.437-2.466,1.744-2.466,3.312C48.926,66.9,50.487,68.458,52.407,68.458z"/><g><path fill="none" d="M72.156,38.609l9.5-5.755l-4.761-7.861c-1.489-2.46-4.703-3.25-7.164-1.76l-0.577,0.351   c-2.46,1.49-3.25,4.703-1.759,7.165L72.156,38.609z"/><path d="M66.583,31.24l9.262,15.29c1.761,2.906,5.559,3.838,8.467,2.078l0.576-0.349c2.907-1.762,3.842-5.559,2.08-8.467   l-9.262-15.29c-1.759-2.908-5.56-3.839-8.467-2.079l-0.576,0.35C65.755,24.533,64.822,28.332,66.583,31.24z M69.154,23.584   l0.577-0.351c2.461-1.49,5.675-0.701,7.164,1.76l4.761,7.861l-9.5,5.755l-4.761-7.86C65.904,28.288,66.694,25.074,69.154,23.584z"/></g><g><path d="M65.245,48.329c3.23-2.063,4.328-6.204,2.668-9.563l-12.464,7.957C57.798,49.644,62.014,50.391,65.245,48.329z"/><path d="M57.239,35.788c-3.23,2.063-4.328,6.204-2.668,9.562l12.465-7.958C64.69,34.471,60.469,33.725,57.239,35.788z"/></g><text x="-7.983" y="115" fill="#000000" font-size="5px" font-weight="bold" font-family="'Helvetica Neue', Helvetica, Arial-Unicode, Arial, Sans-serif">Created by Wilson Joseph</text><text x="-7.983" y="120" fill="#000000" font-size="5px" font-weight="bold" font-family="'Helvetica Neue', Helvetica, Arial-Unicode, Arial, Sans-serif">from the Noun Project</text></svg>